<svg width="28" height="28" viewBox="0 0 28 28" fill="none" xmlns="http://www.w3.org/2000/svg">
<path d="M25.4285 8.80356L11.4285 22.8036C11.3066 22.9259 11.1617 23.023 11.0022 23.0892C10.8426 23.1555 10.6716 23.1896 10.4989 23.1896C10.3261 23.1896 10.1551 23.1555 9.99553 23.0892C9.836 23.023 9.69111 22.9259 9.56917 22.8036L3.44417 16.6786C3.32208 16.5565 3.22524 16.4115 3.15916 16.252C3.09309 16.0925 3.05908 15.9215 3.05908 15.7489C3.05908 15.5762 3.09309 15.4052 3.15916 15.2457C3.22524 15.0862 3.32208 14.9413 3.44417 14.8192C3.56626 14.6971 3.7112 14.6002 3.87072 14.5342C4.03023 14.4681 4.2012 14.4341 4.37386 14.4341C4.54652 14.4341 4.71749 14.4681 4.877 14.5342C5.03652 14.6002 5.18146 14.6971 5.30355 14.8192L10.5 20.0156L23.5714 6.94637C23.8179 6.6998 24.1523 6.56128 24.501 6.56128C24.8497 6.56128 25.1842 6.6998 25.4307 6.94637C25.6773 7.19294 25.8158 7.52736 25.8158 7.87606C25.8158 8.22476 25.6773 8.55918 25.4307 8.80574L25.4285 8.80356Z" fill="white"/>
</svg>
