<svg width="16" height="16" viewBox="0 0 16 16" fill="none" xmlns="http://www.w3.org/2000/svg">
<g clip-path="url(#clip0_390_799)">
<path d="M7.9999 6.62188C9.52215 6.62188 10.7562 5.38788 10.7562 3.86563C10.7562 2.34338 9.52215 1.10938 7.9999 1.10938C6.47765 1.10938 5.24365 2.34338 5.24365 3.86563C5.24365 5.38788 6.47765 6.62188 7.9999 6.62188Z" stroke="black" stroke-width="1.5" stroke-linecap="round" stroke-linejoin="round"/>
<path d="M8 6.62183V14.8906" stroke="black" stroke-width="1.5" stroke-linecap="round" stroke-linejoin="round"/>
<path d="M7.77021 3.4064C7.64334 3.4064 7.54053 3.30358 7.54053 3.17671C7.54053 3.04983 7.64334 2.94702 7.77021 2.94702" stroke="black" stroke-width="1.5"/>
<path d="M7.77026 3.4064C7.89714 3.4064 7.99995 3.30358 7.99995 3.17671C7.99995 3.04983 7.89714 2.94702 7.77026 2.94702" stroke="black" stroke-width="1.5"/>
</g>
<defs>
<clipPath id="clip0_390_799">
<rect width="15" height="15" fill="white" transform="translate(0.5 0.5)"/>
</clipPath>
</defs>
</svg>
