<svg width="23" height="23" viewBox="0 0 23 23" fill="none" xmlns="http://www.w3.org/2000/svg">
<g clip-path="url(#clip0_390_745)">
<path d="M19.6667 8H15V3.33333C15 2.7145 14.7542 2.121 14.3166 1.68342C13.8791 1.24584 13.2855 1 12.6667 1H10.3333C9.71453 1 9.12093 1.24584 8.68335 1.68342C8.24584 2.121 8 2.7145 8 3.33333V8H3.33333C2.7145 8 2.121 8.24584 1.68342 8.68335C1.24584 9.12093 1 9.71453 1 10.3333V12.6667C1 13.2855 1.24584 13.8791 1.68342 14.3166C2.121 14.7542 2.7145 15 3.33333 15H8V19.6667C8 20.2855 8.24584 20.8791 8.68335 21.3166C9.12093 21.7542 9.71453 22 10.3333 22H12.6667C13.2855 22 13.8791 21.7542 14.3166 21.3166C14.7542 20.8791 15 20.2855 15 19.6667V15H19.6667C20.2855 15 20.8791 14.7542 21.3166 14.3166C21.7542 13.8791 22 13.2855 22 12.6667V10.3333C22 9.71453 21.7542 9.12093 21.3166 8.68335C20.8791 8.24584 20.2855 8 19.6667 8Z" fill="#FEC868" stroke="black" stroke-linecap="round" stroke-linejoin="round"/>
</g>
<defs>
<clipPath id="clip0_390_745">
<rect width="22" height="22" fill="white" transform="translate(0.5 0.5)"/>
</clipPath>
</defs>
</svg>
