<svg width="25" height="24" viewBox="0 0 25 24" fill="none" xmlns="http://www.w3.org/2000/svg">
<g clip-path="url(#clip0_1193_1192)">
<path d="M24.0985 8.56812H24.002C23.9346 8.58012 23.9588 8.57669 24.0985 8.56812Z" fill="#E3E3E3"/>
<path d="M12.4968 22.2793C18.1757 22.2793 22.7794 17.6758 22.7794 11.9969C22.7794 6.31795 18.1757 1.71423 12.4968 1.71423C6.81791 1.71423 2.21423 6.31795 2.21423 11.9969C2.21423 17.6758 6.81791 22.2793 12.4968 22.2793Z" fill="#FEC868"/>
<path d="M19.7686 4.72537C17.84 2.79732 15.2246 1.71406 12.4973 1.71423C9.77022 1.7144 7.15473 2.79783 5.22644 4.72623C3.29814 6.6548 2.21492 9.27029 2.21509 11.9977C2.21524 14.7248 3.29877 17.3403 5.22729 19.2685L19.7686 4.72537Z" fill="#F8EAAB"/>
<path d="M12.4968 22.2793C18.1757 22.2793 22.7794 17.6758 22.7794 11.9969C22.7794 6.31795 18.1757 1.71423 12.4968 1.71423C6.81791 1.71423 2.21423 6.31795 2.21423 11.9969C2.21423 17.6758 6.81791 22.2793 12.4968 22.2793Z" stroke="#191919" stroke-linecap="round" stroke-linejoin="round"/>
<path d="M12.4971 6.85547V17.1381" stroke="#191919" stroke-linecap="round" stroke-linejoin="round"/>
<path d="M17.6385 11.9967H7.35583" stroke="#191919" stroke-linecap="round" stroke-linejoin="round"/>
</g>
<defs>
<clipPath id="clip0_1193_1192">
<rect width="24" height="24" fill="white" transform="translate(0.5)"/>
</clipPath>
</defs>
</svg>
