<svg width="24" height="24" viewBox="0 0 24 24" fill="none" xmlns="http://www.w3.org/2000/svg">
<g clip-path="url(#clip0_677_1089)">
<path d="M19.4673 7.82936V2.95109C19.4673 2.81907 19.4149 2.69246 19.3215 2.59911C19.2282 2.50576 19.1016 2.45331 18.9695 2.45331H16.9784C16.8464 2.45331 16.7198 2.50576 16.6264 2.59911C16.5331 2.69246 16.4806 2.81907 16.4806 2.95109V5.0816L12.3371 1.26959C12.2452 1.18479 12.1247 1.1377 11.9996 1.1377C11.8745 1.1377 11.754 1.18479 11.6621 1.26959L0.710844 11.5448C0.636985 11.6127 0.585384 11.7014 0.562809 11.7992C0.540233 11.8969 0.547738 11.9993 0.584338 12.0927C0.620938 12.1861 0.684925 12.2663 0.767906 12.3228C0.850886 12.3792 0.948986 12.4092 1.04934 12.4089H3.53825V21.8668C3.53825 22.1308 3.64314 22.384 3.82984 22.5708C4.01655 22.7575 4.26977 22.8623 4.53381 22.8623H19.4673C19.7314 22.8623 19.9846 22.7575 20.1713 22.5708C20.358 22.384 20.4629 22.1308 20.4629 21.8668V12.4089H22.9518C23.0521 12.409 23.15 12.3788 23.2328 12.3223C23.3157 12.2658 23.3795 12.1856 23.416 12.0922C23.4525 11.9988 23.4599 11.8966 23.4373 11.7989C23.4147 11.7012 23.3631 11.6126 23.2893 11.5448L19.4673 7.82936Z" fill="#FEC868"/>
<path d="M1.04934 12.4089H3.28537L11.6133 4.59474C11.7188 4.49827 11.8566 4.44477 11.9996 4.44477C12.1426 4.44477 12.2804 4.49827 12.3859 4.59474L17.1327 8.96229L20.5545 12.1103L20.8621 12.4089H22.9518C23.0521 12.409 23.15 12.3789 23.2328 12.3223C23.3157 12.2658 23.3795 12.1856 23.416 12.0922C23.4525 11.9988 23.4599 11.8966 23.4373 11.7989C23.4147 11.7012 23.3631 11.6127 23.2893 11.5448L19.4673 7.82933V2.95107C19.4673 2.81905 19.4149 2.69243 19.3215 2.59908C19.2282 2.50573 19.1016 2.45328 18.9695 2.45328H16.9784C16.8464 2.45328 16.7198 2.50573 16.6264 2.59908C16.5331 2.69243 16.4806 2.81905 16.4806 2.95107V5.08157L12.3371 1.27055C12.2452 1.18575 12.1247 1.13867 11.9996 1.13867C11.8745 1.13867 11.754 1.18575 11.6621 1.27055L0.710844 11.5448C0.636985 11.6127 0.585384 11.7014 0.562809 11.7992C0.540233 11.8969 0.547738 11.9993 0.584338 12.0927C0.620938 12.1861 0.684925 12.2663 0.767906 12.3228C0.850886 12.3792 0.948986 12.4092 1.04934 12.4089Z" fill="#F8EAAB"/>
<path d="M10.0095 14.8977H13.9917C14.2558 14.8977 14.509 15.0026 14.6957 15.1893C14.8824 15.376 14.9873 15.6293 14.9873 15.8933V22.8622H9.01392V15.8933C9.01392 15.6293 9.11881 15.376 9.30552 15.1893C9.49222 15.0026 9.74545 14.8977 10.0095 14.8977Z" fill="#F8F5F0"/>
<path d="M9.07565 16.8889H14.9863V15.8933C14.9863 15.6293 14.8814 15.376 14.6947 15.1893C14.508 15.0026 14.2548 14.8977 13.9908 14.8977H10.0095C9.74545 14.8977 9.49222 15.0026 9.30552 15.1893C9.11881 15.376 9.01392 15.6293 9.01392 15.8933V16.8889H9.07565Z" fill="#F8F5F0"/>
<path d="M10.0095 14.8977H13.9917C14.2558 14.8977 14.509 15.0026 14.6957 15.1893C14.8824 15.376 14.9873 15.6293 14.9873 15.8933V22.8622H9.01392V15.8933C9.01392 15.6293 9.11881 15.376 9.30552 15.1893C9.49222 15.0026 9.74545 14.8977 10.0095 14.8977Z" stroke="#191919" stroke-linecap="round" stroke-linejoin="round"/>
<path d="M19.4673 7.82936V2.95109C19.4673 2.81907 19.4149 2.69246 19.3215 2.59911C19.2282 2.50576 19.1016 2.45331 18.9695 2.45331H16.9784C16.8464 2.45331 16.7198 2.50576 16.6264 2.59911C16.5331 2.69246 16.4806 2.81907 16.4806 2.95109V5.0816L12.3371 1.26959C12.2452 1.18479 12.1247 1.1377 11.9996 1.1377C11.8745 1.1377 11.754 1.18479 11.6621 1.26959L0.710844 11.5448C0.636985 11.6127 0.585384 11.7014 0.562809 11.7992C0.540233 11.8969 0.547738 11.9993 0.584338 12.0927C0.620938 12.1861 0.684925 12.2663 0.767906 12.3228C0.850886 12.3792 0.948986 12.4092 1.04934 12.4089H3.53825V21.8668C3.53825 22.1308 3.64314 22.384 3.82984 22.5708C4.01655 22.7575 4.26977 22.8623 4.53381 22.8623H19.4673C19.7314 22.8623 19.9846 22.7575 20.1713 22.5708C20.358 22.384 20.4629 22.1308 20.4629 21.8668V12.4089H22.9518C23.0521 12.409 23.15 12.3788 23.2328 12.3223C23.3157 12.2658 23.3795 12.1856 23.416 12.0922C23.4525 11.9988 23.4599 11.8966 23.4373 11.7989C23.4147 11.7012 23.3631 11.6126 23.2893 11.5448L19.4673 7.82936Z" stroke="#191919" stroke-linecap="round" stroke-linejoin="round"/>
</g>
<defs>
<clipPath id="clip0_677_1089">
<rect width="24" height="24" fill="white"/>
</clipPath>
</defs>
</svg>
