<svg width="24" height="24" viewBox="0 0 24 24" fill="none" xmlns="http://www.w3.org/2000/svg">
<path d="M21 10.063C21 16.29 13.879 22.121 12.305 23.333C12.2176 23.4003 12.1103 23.4368 12 23.4368C11.8897 23.4368 11.7824 23.4003 11.695 23.333C10.122 22.122 3 16.29 3 10.063C3 4.81699 6.753 0.562988 12 0.562988C17.247 0.562988 21 4.81699 21 10.063Z" fill="#F8EAAB"/>
<path d="M12 0.562988C6.753 0.562988 3 4.81699 3 10.063C3 16.29 10.122 22.122 11.7 23.333C11.7863 23.3983 11.8917 23.4334 12 23.433V0.562988Z" fill="#F8F5F0"/>
<path d="M12.589 4.79391L13.871 7.56291H16.366C16.4924 7.5572 16.6174 7.59078 16.7239 7.65903C16.8304 7.72729 16.9131 7.82687 16.9607 7.94407C17.0083 8.06127 17.0184 8.19034 16.9896 8.31351C16.9608 8.43669 16.8946 8.54792 16.8 8.63191L14.634 10.7679L15.834 13.5289C15.8867 13.6552 15.8985 13.7948 15.8676 13.9282C15.8368 14.0615 15.7649 14.1818 15.6621 14.2721C15.5593 14.3624 15.4308 14.4182 15.2946 14.4316C15.1584 14.4451 15.0215 14.4154 14.903 14.3469L12 12.7129L9.1 14.3469C8.98155 14.4154 8.84459 14.4451 8.70841 14.4316C8.57222 14.4182 8.44368 14.3624 8.34088 14.2721C8.23808 14.1818 8.16621 14.0615 8.13537 13.9282C8.10454 13.7948 8.1163 13.6552 8.169 13.5289L9.369 10.7679L7.2 8.63191C7.10582 8.54819 7.03977 8.43743 7.01089 8.31477C6.98201 8.19211 6.99169 8.06352 7.03863 7.94657C7.08556 7.82962 7.16745 7.73 7.27312 7.66134C7.37878 7.59267 7.50307 7.5583 7.629 7.56291H10.129L11.414 4.79391C11.4699 4.68633 11.5542 4.59616 11.6578 4.53323C11.7614 4.47029 11.8803 4.43701 12.0015 4.43701C12.1227 4.43701 12.2416 4.47029 12.3452 4.53323C12.4488 4.59616 12.5331 4.68633 12.589 4.79391Z" fill="#FEC868"/>
<path d="M8.169 13.5289C8.11303 13.6545 8.09935 13.7948 8.13 13.9289L14.5 7.56289H13.874L12.589 4.79389C12.5333 4.6858 12.4489 4.59514 12.3451 4.53184C12.2413 4.46854 12.1221 4.43506 12.0005 4.43506C11.8789 4.43506 11.7597 4.46854 11.6559 4.53184C11.5521 4.59514 11.4677 4.6858 11.412 4.79389L10.127 7.56289H7.627C7.50124 7.55871 7.37724 7.5934 7.27191 7.66223C7.16657 7.73106 7.08501 7.83068 7.03834 7.94754C6.99166 8.06439 6.98214 8.19279 7.01107 8.31525C7.04 8.43771 7.10597 8.54827 7.2 8.63189L9.366 10.7679L8.169 13.5289Z" fill="#F8EAAB"/>
<path d="M21 10.063C21 16.29 13.878 22.122 12.305 23.333C12.2176 23.4003 12.1103 23.4368 12 23.4368C11.8897 23.4368 11.7824 23.4003 11.695 23.333C10.121 22.121 3 16.29 3 10.063C3 4.81699 6.753 0.562988 12 0.562988C17.247 0.562988 21 4.81699 21 10.063Z" stroke="#00303E" stroke-linecap="round" stroke-linejoin="round"/>
<path d="M12.589 4.79391L13.871 7.56291H16.366C16.4924 7.5572 16.6174 7.59078 16.7239 7.65903C16.8304 7.72729 16.9131 7.82687 16.9607 7.94407C17.0083 8.06127 17.0184 8.19034 16.9896 8.31351C16.9608 8.43669 16.8946 8.54792 16.8 8.63191L14.634 10.7679L15.834 13.5289C15.8867 13.6552 15.8985 13.7948 15.8676 13.9282C15.8368 14.0615 15.7649 14.1818 15.6621 14.2721C15.5593 14.3624 15.4308 14.4182 15.2946 14.4316C15.1584 14.4451 15.0215 14.4154 14.903 14.3469L12 12.7129L9.1 14.3469C8.98155 14.4154 8.84459 14.4451 8.70841 14.4316C8.57222 14.4182 8.44368 14.3624 8.34088 14.2721C8.23808 14.1818 8.16621 14.0615 8.13537 13.9282C8.10454 13.7948 8.1163 13.6552 8.169 13.5289L9.369 10.7679L7.2 8.63191C7.10582 8.54819 7.03977 8.43743 7.01089 8.31477C6.98201 8.19211 6.99169 8.06352 7.03863 7.94657C7.08556 7.82962 7.16745 7.73 7.27312 7.66134C7.37878 7.59267 7.50307 7.5583 7.629 7.56291H10.129L11.414 4.79391C11.4699 4.68633 11.5542 4.59616 11.6578 4.53323C11.7614 4.47029 11.8803 4.43701 12.0015 4.43701C12.1227 4.43701 12.2416 4.47029 12.3452 4.53323C12.4488 4.59616 12.5331 4.68633 12.589 4.79391Z" stroke="#00303E" stroke-linecap="round" stroke-linejoin="round"/>
</svg>
