<svg width="24" height="24" viewBox="0 0 24 24" fill="none" xmlns="http://www.w3.org/2000/svg">
<g clip-path="url(#clip0_915_1261)">
<path d="M16.5 13.5H23C23.1326 13.5 23.2598 13.5527 23.3536 13.6464C23.4473 13.7402 23.5 13.8674 23.5 14V23C23.5 23.1326 23.4473 23.2598 23.3536 23.3536C23.2598 23.4473 23.1326 23.5 23 23.5H16.5V13.5Z" fill="#F8EAAB" stroke="#191919" stroke-linecap="round" stroke-linejoin="round"/>
<path d="M16.5 11C16.5 9.80653 16.0259 8.66193 15.182 7.81802C14.3381 6.97411 13.1935 6.5 12 6.5C10.8065 6.5 9.66193 6.97411 8.81802 7.81802C7.97411 8.66193 7.5 9.80653 7.5 11V23.5H16.5V11Z" fill="#F8EAAB" stroke="#191919" stroke-linecap="round" stroke-linejoin="round"/>
<path d="M7.5 23.5H1C0.867392 23.5 0.740215 23.4473 0.646447 23.3536C0.552678 23.2598 0.5 23.1326 0.5 23V14C0.5 13.8674 0.552678 13.7402 0.646447 13.6464C0.740215 13.5527 0.867392 13.5 1 13.5H7.5V23.5Z" fill="#F8EAAB" stroke="#191919" stroke-linecap="round" stroke-linejoin="round"/>
<path d="M19 15.5H21C21 15.5 21.5 15.5 21.5 16V17C21.5 17 21.5 17.5 21 17.5H19C19 17.5 18.5 17.5 18.5 17V16C18.5 16 18.5 15.5 19 15.5Z" fill="#FEC868" stroke="#191919" stroke-linecap="round" stroke-linejoin="round"/>
<path d="M21.5 21.5H18.5V20C18.5 19.8674 18.5527 19.7402 18.6464 19.6464C18.7402 19.5527 18.8674 19.5 19 19.5H21C21.1326 19.5 21.2598 19.5527 21.3536 19.6464C21.4473 19.7402 21.5 19.8674 21.5 20V21.5Z" fill="#FEC868" stroke="#191919" stroke-linecap="round" stroke-linejoin="round"/>
<path d="M3 15.5H5C5 15.5 5.5 15.5 5.5 16V17C5.5 17 5.5 17.5 5 17.5H3C3 17.5 2.5 17.5 2.5 17V16C2.5 16 2.5 15.5 3 15.5Z" fill="#FEC868" stroke="#191919" stroke-linecap="round" stroke-linejoin="round"/>
<path d="M3 19.5H5C5 19.5 5.5 19.5 5.5 20V21C5.5 21 5.5 21.5 5 21.5H3C3 21.5 2.5 21.5 2.5 21V20C2.5 20 2.5 19.5 3 19.5Z" fill="#FEC868" stroke="#191919" stroke-linecap="round" stroke-linejoin="round"/>
<path d="M13.5 19C13.5 18.6022 13.342 18.2206 13.0607 17.9393C12.7794 17.658 12.3978 17.5 12 17.5C11.6022 17.5 11.2206 17.658 10.9393 17.9393C10.658 18.2206 10.5 18.6022 10.5 19V23.5H13.5V19Z" fill="#FEC868" stroke="#191919" stroke-linecap="round" stroke-linejoin="round"/>
<path d="M11.5 6.528V3.5" stroke="#191919" stroke-linecap="round" stroke-linejoin="round"/>
<path d="M11.5 0.5H15.5C15.6326 0.5 15.7598 0.552678 15.8536 0.646447C15.9473 0.740215 16 0.867392 16 1V3C16 3.13261 15.9473 3.25979 15.8536 3.35355C15.7598 3.44732 15.6326 3.5 15.5 3.5H11.5V0.5Z" fill="#FEC868" stroke="#191919" stroke-linecap="round" stroke-linejoin="round"/>
<path d="M10.5 11C10.5 11.3978 10.658 11.7794 10.9393 12.0607C11.2206 12.342 11.6022 12.5 12 12.5C12.3978 12.5 12.7794 12.342 13.0607 12.0607C13.342 11.7794 13.5 11.3978 13.5 11C13.5 10.6022 13.342 10.2206 13.0607 9.93934C12.7794 9.65804 12.3978 9.5 12 9.5C11.6022 9.5 11.2206 9.65804 10.9393 9.93934C10.658 10.2206 10.5 10.6022 10.5 11Z" fill="#FEC868" stroke="#191919" stroke-linecap="round" stroke-linejoin="round"/>
</g>
<defs>
<clipPath id="clip0_915_1261">
<rect width="24" height="24" fill="white"/>
</clipPath>
</defs>
</svg>
